<?xml version="1.0" encoding="UTF-8" standalone="no"?>
<svg
   version="1.1"
   id="Contours"
   x="0px"
   y="0px"
   width="1845.326904px"
   height="1845.326904px"
   viewBox="0.000002 0.000000 1845.326904 1732.424438"
   enable-background="new 0 0 1845.326904 1845.326904"
   xml:space="preserve"
   stroke="black"
   fill="none"
   stroke-linecap="round"
   stroke-linejoin="round"
   sodipodi:docname="logo.svg"
   inkscape:version="1.4.2 (ebf0e940d0, 2025-05-08)"
   xmlns:inkscape="http://www.inkscape.org/namespaces/inkscape"
   xmlns:sodipodi="http://sodipodi.sourceforge.net/DTD/sodipodi-0.dtd"
   xmlns="http://www.w3.org/2000/svg"
   xmlns:svg="http://www.w3.org/2000/svg"><defs
     id="defs1"><inkscape:path-effect
       effect="fillet_chamfer"
       id="path-effect3"
       is_visible="true"
       lpeversion="1"
       nodesatellites_param="F,0,0,1,0,0,0,1 @ F,0,0,1,0,0,0,1 @ F,0,0,1,0,16.623645,0,1 @ F,0,0,1,0,16.623645,0,1 @ F,0,0,1,0,0,0,1 @ F,0,0,1,0,0,0,1 @ F,0,0,1,0,133.07714,0,1 @ F,0,0,1,0,0,0,1 @ F,0,0,1,0,0,0,1 @ F,0,0,1,0,0,0,1 @ F,0,0,1,0,0,0,1 @ F,0,0,1,0,0,0,1 @ F,0,0,1,0,0,0,1 @ F,0,0,1,0,0,0,1 @ F,0,0,1,0,0.099939986,0,1 @ F,0,0,1,0,0,0,1 @ F,0,0,1,0,0,0,1 | F,0,0,1,0,0,0,1 @ F,0,0,1,0,0,0,1 @ F,0,0,1,0,0,0,1 @ F,0,0,1,0,0,0,1 @ F,0,0,1,0,0,0,1 @ F,0,0,1,0,0,0,1 @ F,0,0,1,0,16.658952,0,1 @ F,0,0,1,0,0,0,1 @ F,0,0,1,0,0,0,1 @ F,0,0,1,0,0,0,1 @ F,0,0,1,0,0,0,1 @ F,0,1,1,0,0,0,1 @ F,0,0,1,0,0,0,1 @ F,0,0,1,0,0,0,1 @ F,0,0,1,0,0,0,1 @ F,0,0,1,0,0,0,1 @ F,0,0,1,0,22.182298,0,1 @ F,0,0,1,0,0,0,1 @ F,0,0,1,0,0,0,1 @ F,0,0,1,0,0,0,1 @ F,0,0,1,0,15.408887,0,1 @ F,0,0,1,0,0,0,1 @ F,0,0,1,0,0,0,1 @ F,0,0,1,0,0,0,1 @ F,0,0,1,0,0,0,1 @ F,0,0,1,0,0,0,1 @ F,0,0,1,0,0,0,1 @ F,0,0,1,0,0,0,1 @ F,0,0,1,0,0,0,1 @ F,0,0,1,0,0,0,1 @ F,0,0,1,0,0,0,1 @ F,0,0,1,0,25.961163,0,1 @ F,0,0,1,0,0,0,1 @ F,0,0,1,0,0,0,1 @ F,0,0,1,0,0,0,1 @ F,0,0,1,0,0,0,1 | F,0,0,1,0,0,0,1 @ F,0,0,1,0,0,0,1 @ F,0,0,1,0,0,0,1 @ F,0,0,1,0,0,0,1 @ F,0,0,1,0,0,0,1 @ F,0,0,1,0,0,0,1 @ F,0,0,1,0,0,0,1 @ F,0,0,1,0,0,0,1 @ F,0,0,1,0,7.9266612,0,1 @ F,0,0,1,0,7.9266612,0,1 @ F,0,0,1,0,0,0,1 @ F,0,0,1,0,0,0,1 @ F,0,0,1,0,0,0,1 @ F,0,0,1,0,0,0,1 @ F,0,0,1,0,0,0,1 @ F,0,0,1,0,0,0,1"
       radius="0"
       unit="px"
       method="auto"
       mode="F"
       chamfer_steps="1"
       flexible="false"
       use_knot_distance="true"
       apply_no_radius="true"
       apply_with_radius="true"
       only_selected="false"
       hide_knots="false" /><inkscape:path-effect
       effect="fillet_chamfer"
       id="path-effect57"
       is_visible="true"
       lpeversion="1"
       nodesatellites_param="F,0,0,1,0,0,0,1 @ F,0,0,1,0,0,0,1 @ F,0,0,1,0,0,0,1 @ F,0,0,1,0,0,0,1 @ F,0,0,1,0,0,0,1 @ F,0,0,1,0,0,0,1 @ F,0,0,1,0,0,0,1 @ F,0,0,1,0,0,0,1 @ F,0,0,1,0,0,0,1 @ F,0,0,1,0,0,0,1 @ F,0,0,1,0,0,0,1 @ F,0,0,1,0,0,0,1 @ F,0,0,1,0,0,0,1 | F,0,0,1,0,0,0,1 @ F,0,0,1,0,0,0,1 @ F,0,0,1,0,0,0,1 @ F,0,0,1,0,0,0,1 @ F,0,0,1,0,0,0,1 @ F,0,0,1,0,0,0,1 @ F,0,0,1,0,0,0,1 @ F,0,0,1,0,0,0,1 @ F,0,0,1,0,0,0,1 @ F,0,0,1,0,0,0,1 @ F,0,0,1,0,0,0,1 @ F,0,0,1,0,0,0,1 @ F,0,0,1,0,0,0,1 @ F,0,0,1,0,0,0,1 @ F,0,0,1,0,0,0,1 @ F,0,0,1,0,0,0,1 @ F,0,0,1,0,0,0,1 @ F,0,0,1,0,0,0,1 @ F,0,0,1,0,0,0,1 @ F,0,0,1,0,0,0,1 @ F,0,0,1,0,0,0,1 @ F,0,0,1,0,0,0,1 @ F,0,0,1,0,0,0,1 @ F,0,0,1,0,0,0,1 | F,0,0,1,0,0,0,1 @ F,0,0,1,0,0,0,1 @ F,0,0,1,0,0,0,1 @ F,0,0,1,0,0,0,1 @ F,0,0,1,0,0,0,1 @ F,0,0,1,0,0,0,1 @ F,0,0,1,0,0,0,1"
       radius="0"
       unit="px"
       method="auto"
       mode="F"
       chamfer_steps="1"
       flexible="false"
       use_knot_distance="true"
       apply_no_radius="true"
       apply_with_radius="true"
       only_selected="false"
       hide_knots="false" /><inkscape:path-effect
       effect="fillet_chamfer"
       id="path-effect56"
       is_visible="true"
       lpeversion="1"
       nodesatellites_param="F,0,0,1,0,0,0,1 @ F,0,0,1,0,0,0,1 @ F,0,0,1,0,0,0,1 @ F,0,0,1,0,0,0,1 @ F,0,0,1,0,0,0,1 @ F,0,0,1,0,0,0,1 @ F,0,0,1,0,0,0,1 @ F,0,0,1,0,0,0,1 @ F,0,0,1,0,0,0,1 @ F,0,0,1,0,0,0,1 @ F,0,0,1,0,0,0,1 @ F,0,0,1,0,0,0,1 | F,0,0,1,0,0,0,1 @ F,0,0,1,0,0,0,1 @ F,0,0,1,0,0,0,1 @ F,0,0,1,0,0,0,1 @ F,0,0,1,0,0,0,1 @ F,0,0,1,0,0,0,1 @ F,0,0,1,0,0,0,1 @ F,0,0,1,0,0,0,1 @ F,0,0,1,0,0,0,1 @ F,0,0,1,0,0,0,1 @ F,0,0,1,0,0,0,1 @ F,0,0,1,0,0,0,1 @ F,0,0,1,0,0,0,1 @ F,0,0,1,0,0,0,1 @ F,0,0,1,0,0,0,1 @ F,0,0,1,0,0,0,1 @ F,0,0,1,0,0,0,1 @ F,0,0,1,0,0,0,1 @ F,0,0,1,0,0,0,1 @ F,0,0,1,0,0,0,1 @ F,0,0,1,0,0,0,1 @ F,0,0,1,0,0,0,1 @ F,0,0,1,0,0,0,1 @ F,0,0,1,0,0,0,1 | F,0,0,1,0,0,0,1 @ F,0,0,1,0,0,0,1 @ F,0,0,1,0,0,0,1 @ F,0,0,1,0,35.436977,0,1 @ F,0,0,1,0,0,0,1 @ F,0,0,1,0,0,0,1 @ F,0,0,1,0,0,0,1"
       radius="0"
       unit="px"
       method="auto"
       mode="F"
       chamfer_steps="1"
       flexible="false"
       use_knot_distance="true"
       apply_no_radius="true"
       apply_with_radius="true"
       only_selected="false"
       hide_knots="false" /></defs><sodipodi:namedview
     id="namedview1"
     pagecolor="#ffffff"
     bordercolor="#000000"
     borderopacity="0.25"
     inkscape:showpageshadow="2"
     inkscape:pageopacity="0.0"
     inkscape:pagecheckerboard="0"
     inkscape:deskcolor="#d1d1d1"
     showguides="true"
     inkscape:zoom="0.26"
     inkscape:cx="778.84615"
     inkscape:cy="1242.3077"
     inkscape:window-width="1920"
     inkscape:window-height="1011"
     inkscape:window-x="0"
     inkscape:window-y="32"
     inkscape:window-maximized="1"
     inkscape:current-layer="g8"><sodipodi:guide
       position="769.59451,1208.9483"
       orientation="0,-1"
       id="guide39"
       inkscape:locked="false" /><sodipodi:guide
       position="747.21459,849.71268"
       orientation="0,-1"
       id="guide40"
       inkscape:locked="false" /><sodipodi:guide
       position="176.29928,1432.4157"
       orientation="0,-1"
       id="guide41"
       inkscape:locked="false" /><sodipodi:guide
       position="176.07334,302.55678"
       orientation="0,-1"
       id="guide42"
       inkscape:locked="false" /><sodipodi:guide
       position="508.39236,325.79776"
       orientation="0,-1"
       id="guide43"
       inkscape:locked="false" /><sodipodi:guide
       position="352.73972,312.65066"
       orientation="0,-1"
       id="guide44"
       inkscape:locked="false" /><sodipodi:guide
       position="349.60045,1421.8733"
       orientation="0,-1"
       id="guide45"
       inkscape:locked="false" /><sodipodi:guide
       position="508.14012,1405.1016"
       orientation="0,-1"
       id="guide46"
       inkscape:locked="false" /><sodipodi:guide
       position="746.43226,627.14772"
       orientation="0,-1"
       id="guide47"
       inkscape:locked="false" /><sodipodi:guide
       position="744.50916,491.10148"
       orientation="0,-1"
       id="guide48"
       inkscape:locked="false" /><sodipodi:guide
       position="1710.8725,1117.834"
       orientation="0,-1"
       id="guide49"
       inkscape:locked="false" /><sodipodi:guide
       position="-2e-06,1677.3897"
       orientation="1,0"
       id="guide50"
       inkscape:locked="false" /><sodipodi:guide
       position="176.21134,992.6526"
       orientation="1,0"
       id="guide51"
       inkscape:locked="false" /><sodipodi:guide
       position="352.85475,937.11304"
       orientation="1,0"
       id="guide52"
       inkscape:locked="false" /><sodipodi:guide
       position="508.24442,958.82757"
       orientation="1,0"
       id="guide53"
       inkscape:locked="false" /><sodipodi:guide
       position="1845.3343,1118.0566"
       orientation="1,0"
       id="guide54"
       inkscape:locked="false" /><sodipodi:guide
       position="1.6315236,1679.4271"
       orientation="0,-1"
       id="guide55"
       inkscape:locked="false" /><sodipodi:guide
       position="-2e-06,52.997396"
       orientation="0,-1"
       id="guide56"
       inkscape:locked="false" /><sodipodi:guide
       position="-2.0000002e-06,890.80493"
       orientation="0,-1"
       id="guide1"
       inkscape:locked="false" /><sodipodi:guide
       position="992.36393,1098.424"
       orientation="0,-1"
       id="guide2"
       inkscape:locked="false" /><sodipodi:guide
       position="802.26766,1035.012"
       orientation="1,0"
       id="guide3"
       inkscape:locked="false" /><sodipodi:guide
       position="1859.8776,1007.7947"
       orientation="0,-1"
       id="guide20"
       inkscape:locked="false" /><sodipodi:guide
       position="1392.337,890.80493"
       orientation="1,0"
       id="guide4"
       inkscape:locked="false" /><sodipodi:guide
       position="743.64486,512.13462"
       orientation="1,0"
       id="guide5"
       inkscape:locked="false" /><sodipodi:guide
       position="800.66379,1039.9291"
       orientation="0,-1"
       id="guide6"
       inkscape:locked="false" /></sodipodi:namedview><g
     id="g57"><g
       id="g58"
       transform="translate(42.729002,277.37163)"><g
         id="g59"
         transform="translate(548.07692,-68.435005)"><g
           id="g7"><g
             id="g8"><path
               id="path1"
               style="opacity:1;fill:#000000;fill-opacity:1"
               class="selected"
               transform="translate(-591.09102,-212.33388)"
               inkscape:path-effect="#path-effect3"
               inkscape:original-d="m 1739.9602,631.08017 c 0,0 9.0356,16.52432 16.3203,32.07121 8.4543,18.04287 11.5126,24.28132 17.3316,41.27875 1.8405,5.37602 3.5977,10.62599 5.2706,15.76587 15.0137,46.13065 23.2256,83.39173 23.7226,123.28897 1.2575,100.93975 -22.9009,197.09893 -74.7949,286.55493 -91.9582,158.5196 -323.1267,310.2993 -524.1562,398.2614 -357.6897,156.5099 -719.85643,201.5949 -1153.372946,204.1231 -16.767181,0.098 -33.536564,0.097 -50.281254,0 V 840.0168 -4.7305181e-5 C 61.458819,-2.3874727 269.40087,-4.2535274 498.489,23.610948 c 197.63674,24.038977 410.28066,73.106571 566.8446,128.700862 99.822,35.44582 249.4947,98.84718 363.6751,172.62559 129.4348,83.63517 226.996,181.52875 226.996,181.52875 h 190.1714 l 0.051,124.61402 M 744.27709,1110.5118 c 92.83919,0.4593 191.83066,2.8136 282.56511,-16.8481 47.4893,-10.2907 95.7467,-23.9536 134.2154,-53.6401 9.2876,-7.1673 17.5812,-16.6797 20.6619,-27.9995 6.5241,-23.97176 -10.003,-45.0656 -31.4176,-57.66019 -52.7199,-31.0063 -103.0475,-44.45721 -169.05086,-55.68404 -56.28602,-9.57397 -147.76599,-16.91636 -205.03609,-18.16154 -53.35798,-1.16013 -96.36118,3.03476 -149.5132,6.49761 l 1.27779,-380.54979 641.09206,-2e-5 c -5.1075,-2.48359 -23.2807,-13.86745 -28.0809,-16.45478 -19.7637,-10.65274 -24.3246,-13.1836 -45.6376,-23.93321 -45.6652,-23.03209 -97.4935,-44.96048 -147.6403,-63.45853 C 873.78419,338.46114 681.13679,297.85494 508.31187,279.75004 l -4.28844,1171.31886 c 97.80212,-11.9536 206.93389,-27.7327 301.59514,-50.7869 175.18693,-42.6658 341.71903,-100.9054 494.92443,-194.805 6.5555,-4.0179 12.7945,-8.4216 19.1832,-12.8179 54.5057,-37.5081 106.6652,-84.8712 147.2036,-136.4445 16.4324,-20.9054 28.4411,-41.3612 38.4952,-62.16725 9.1923,-19.02266 16.8873,-38.26982 22.0318,-59.82317 4.7533,-19.91444 9.7604,-46.97528 8.4201,-69.36899 -2.2911,-38.27987 -5.6467,-60.89665 -12.3855,-81.95165 -1.7918,-5.59835 -3.6469,-11.31789 -5.9946,-16.91587 -7.9538,-18.96575 -10.582,-25.7288 -15.5428,-35.10964 -3.0155,-5.70209 -6.7033,-12.84113 -13.5196,-22.92096 -9.1369,-13.51146 -28.5787,-42.44628 -45.1915,-61.71839 -5.2664,-6.10932 -13.8512,-15.15851 -13.8512,-15.15851 h -241.6888 c -192.67852,-0.66174 -193.48825,-0.10579 -386.17181,0 l -10e-6,124.24411 c 154.97199,11.90711 278.43692,25.74126 404.60702,103.07454 51.0434,31.28598 104.4233,84.52474 105.715,144.37938 1.341,62.1436 -34.5836,107.2752 -84.9181,143.745 -131.5678,95.3273 -324.21681,140.2783 -482.42584,141.468 l 0.006,-176.7007 m -407.81131,352.5753 1.64492,-1197.03522 c 54.45771,4.05408 120.8277,5.06373 169.9631,12.91946 L 353.13985,266.50639 c -8.75657,-0.45155 -17.17911,-0.8321 -26.04812,-1.42494 -2.40536,-0.16078 -4.84523,-0.24268 -7.28823,-0.36867 -11.19093,-0.57711 -22.75976,-0.90836 -34.72526,-1.43234 -3.97641,-0.17413 -9.46972,-0.38029 -13.4892,-0.4984 -3.75973,-0.11047 -7.5373,-0.26414 -11.33083,-0.30985 -26.55664,-0.31995 -52.98348,-0.97406 -78.92137,-1.23558 -1.32214,-0.0133 -1.32053,-0.003 -2.64119,-0.002 -0.53136,4.9e-4 -2.37745,-0.006 -2.37745,-0.006 l -0.47154,1207.07199 41.42102,-0.2465 44.65791,-0.7422 38.38643,-1.3941 z"
               d="m 1739.9602,631.08017 c 0,0 9.0356,16.52432 16.3203,32.07121 5.3246,11.3636 8.5088,18.04483 11.5904,25.68054 3.4354,8.51257 8.1704,22.63391 11.0118,31.36403 10e-5,2.2e-4 2.3275,7.07047 4.9921,15.85614 11.8387,39.03543 18.2917,72.20664 18.7305,107.43288 1.2575,100.93975 -22.9009,197.09893 -74.7949,286.55493 -74.0503,127.6496 -238.3709,250.9288 -404.533,340.0334 -64.7542,34.7245 -174.0945,82.5341 -243.089,107.8285 -318.31722,116.7 -646.15804,152.2846 -1029.907146,154.5226 -16.767181,0.098 -33.536564,0.097 -50.281254,0 V 840.0168 -4.7305181e-5 C 61.458819,-2.3874727 269.40087,-4.2535274 498.489,23.610948 c 197.63674,24.038977 410.28066,73.106571 566.8446,128.700862 99.822,35.44582 249.4947,98.84718 363.6751,172.62559 127.4284,82.33871 223.9637,178.49722 226.9259,181.4586 0.039,0.0387 0.1148,0.0702 0.17,0.0702 l 190.0715,0 0.051,124.61402 M 744.27709,1110.5118 c 92.83919,0.4593 191.83066,2.8136 282.56511,-16.8481 47.4893,-10.2907 95.7467,-23.9536 134.2154,-53.6401 9.2876,-7.1673 17.5812,-16.6797 20.6619,-27.9995 6.5241,-23.97176 -10.003,-45.0656 -31.4176,-57.66019 -52.7199,-31.0063 -103.0475,-44.45721 -169.05086,-55.68404 -51.09871,-8.69164 -131.20336,-15.54406 -188.38474,-17.66494 -9.19406,-0.34101 -24.10856,-0.67575 -33.30888,-0.69229 -45.93934,-0.0826 -85.3427,3.59783 -132.85567,6.6933 l 1.27779,-380.54979 641.09206,-2e-5 c -5.1075,-2.48359 -23.2807,-13.86745 -28.0809,-16.45478 -19.7637,-10.65274 -24.3246,-13.1836 -45.6376,-23.93321 -45.6652,-23.03209 -97.4935,-44.96048 -147.6403,-63.45853 C 873.78419,338.46114 681.13679,297.85494 508.31187,279.75004 l -4.28844,1171.31886 c 97.80212,-11.9536 206.93389,-27.7327 301.59514,-50.7869 167.96664,-40.9073 327.97713,-96.1312 475.91383,-183.3752 10.5525,-6.2231 27.3735,-16.7897 37.459,-23.7416 0.2447,-0.1687 0.4896,-0.3374 0.7348,-0.5061 54.5057,-37.5081 106.6652,-84.8712 147.2036,-136.4445 16.4324,-20.9054 28.4411,-41.3612 38.4952,-62.16725 7.0282,-14.54427 13.1811,-29.21978 17.988,-44.95694 2.4857,-8.13756 5.6835,-21.57055 7.3471,-29.91595 3.4507,-17.30978 6.1425,-37.18127 5.1168,-54.31927 -2.2911,-38.27987 -5.6467,-60.89665 -12.3855,-81.95165 -1.7918,-5.59835 -3.6469,-11.31789 -5.9946,-16.91587 -7.9538,-18.96575 -10.582,-25.7288 -15.5428,-35.10964 -3.0155,-5.70209 -6.7033,-12.84113 -13.5196,-22.92096 -9.1369,-13.51146 -28.5787,-42.44628 -45.1915,-61.71839 -5.2664,-6.10932 -13.8512,-15.15851 -13.8512,-15.15851 h -241.6888 c -192.67852,-0.66174 -193.48825,-0.10579 -386.17181,0 l -10e-6,124.24411 c 145.78624,11.20133 263.68982,24.10803 382.19272,89.97954 12.5311,6.96555 32.4024,19.08697 43.957,27.56928 43.4968,31.93128 83.0624,78.47599 84.1723,129.9051 1.341,62.1436 -34.5836,107.2752 -84.9181,143.745 -131.5678,95.3273 -324.21681,140.2783 -482.42584,141.468 l 0.006,-176.7007 m -407.81131,352.5753 1.64492,-1197.03522 c 54.45771,4.05408 120.8277,5.06373 169.9631,12.91946 L 353.13985,266.50639 c -8.75657,-0.45155 -17.17911,-0.8321 -26.04812,-1.42494 -2.40536,-0.16078 -4.84523,-0.24268 -7.28823,-0.36867 -11.19093,-0.57711 -22.75976,-0.90836 -34.72526,-1.43234 -3.97641,-0.17413 -9.46972,-0.38029 -13.4892,-0.4984 -1.13409,-0.0333 -2.26981,-0.0706 -3.4071,-0.10761 -4.37526,-0.14248 -11.47237,-0.24441 -15.8497,-0.307 -21.18996,-0.30296 -42.27429,-0.77299 -63.06992,-1.03965 -4.37705,-0.0561 -9.10796,-0.0943 -10.56667,-0.0932 -0.53136,4.9e-4 -2.37745,-0.006 -2.37745,-0.006 l -0.47154,1207.07199 41.42102,-0.2465 44.65791,-0.7422 38.38643,-1.3941 z"
               sodipodi:nodetypes="csscsssscccsssccccsssssscccsssccsscsssssssssccccsssccccccssssssccccccc" /></g></g><ellipse
           style="opacity:0.764015;fill:#000000;stroke-width:1.06024"
           id="path4"
           transform="matrix(1,0,0.00398613,0.99999206,0,0)"
           ry="603.10785"
           rx="1359.6907"
           cy="895.31348"
           cx="-2409.5254" /><ellipse
           style="opacity:0.826612;fill:none;fill-opacity:1;stroke:none;stroke-width:7.76;stroke-dasharray:none;stroke-opacity:0"
           id="path19"
           cx="-804.13922"
           cy="912.38995"
           rx="57.777779"
           ry="186.66667" /></g></g></g></svg>
